<svg xmlns="http://www.w3.org/2000/svg" xmlns:xlink="http://www.w3.org/1999/xlink" version="1.1" id="Layer_1" x="0px" y="0px" enable-background="new 0 0 850.4 566.9" xml:space="preserve" viewBox="318.2 149 221.2 221.2">
<g>
	<circle fill="#00669D" cx="428.8" cy="259.6" r="110.6"/>
	<g>
		<path fill="#FFFFFF" d="M362,199.7v92.5c0,2.1,1.6,3.9,3.7,4c3.8,0.3,8.1,0.4,11.9,0.3c2.2-0.1,3.9-1.9,3.9-4.1v-90.1    c2.7-2.9,7-7.1,13.2-10c0.9-0.3,1.3-0.4,2-0.6c10.6-0.7,16,7.2,16,23.2v72.4c0,2.6,2.4,4.6,4.9,4.1c3.8-0.7,7.7-1.5,11.4-2.3    c1.9-0.4,3.3-2.1,3.3-4.1l0-74.1c0-15.2-10.7-23.8-23.4-24.4c-2.1-0.1-3-0.1-4.4,0c-11.1,0.7-18.8,7.1-23.5,12v-12.7h-23.8    C360.7,188.5,362,192.9,362,199.7z"/>
		<path fill="#FFFFFF" d="M523.8,262.9c-9.3,4.8-22.9,11.2-39.1,17.6l0-69.4c0-13.8-7-22.5-19-24.1c0.2,0,0.2,0-0.2,0    c-0.8-0.1-1.6-0.2-2.5-0.2c-0.4,0-0.8-0.1-1.2-0.1c-9.1-0.7-17,2.8-22.5,6.9c-0.5,0.3-0.6,1-0.4,1.5c0.1,0.1,0.1,0.3,0.2,0.4    c0.3,0.8,1.2,1,1.9,0.6c1.8-1.3,3.8-2.5,6-3.5c0.7-0.2,1.8-0.4,2.5-0.6c10.3-0.4,15.5,7.4,15.5,23.3v72.6    c-25.5,8.5-55.1,15.5-84.4,16c-37.1,0.7-54.3-8.9-61.5-26.9c1.6,9.9,4.6,19.3,8.6,28.1c8.6,13.3,24.5,23.4,56.1,26.3    c25.7,2.3,54.4-6.6,81.2-19.8V345c0,2.9,3,5,5.7,3.8c3.4-1.4,7.5-3.4,12-6.1c1.2-0.7,2-2.1,2-3.6l0-38.4    c15.1-8.8,29.2-18.6,41.2-27.9c0.6-0.4,0.9-1,1-1.7c0.2-1.9,0.4-3.9,0.6-5.7C527.7,263.4,525.6,261.9,523.8,262.9z"/>
	</g>
</g>
</svg>