<svg xmlns="http://www.w3.org/2000/svg" xmlns:xlink="http://www.w3.org/1999/xlink" version="1.1" id="Layer_1" x="0px" y="0px" enable-background="new 0 0 850.4 411" xml:space="preserve" viewBox="72.9 99 697.4 180.6">
<g>
	<g>
		<path fill="#00669D" d="M395.8,244.3v19h-2.3v-15l-7.7,12.7h-1.2l-7.7-12.8v15.1h-2.3v-19h2.6l8.1,13.7l8.2-13.7H395.8z"/>
		<path fill="#00669D" d="M421.6,254.6h-15.9c0.3,4,3.3,6.6,7.5,6.6c2.3,0,4.4-0.8,5.8-2.5l1.4,1.7c-1.7,2-4.3,3.1-7.3,3.1    c-5.9,0-10-4-10-9.7c0-5.6,3.9-9.6,9.3-9.6c5.3,0,9.2,3.9,9.2,9.6C421.6,254,421.6,254.3,421.6,254.6z M405.7,252.7h13.5    c-0.3-3.7-3-6.3-6.8-6.3C408.7,246.4,406,249,405.7,252.7z"/>
		<path fill="#00669D" d="M447.2,261.1v6.8h-2.4v-4.6h-17v4.6h-2.4v-6.8h1.1c2.8-0.2,3.3-5.3,3.5-10.4l0.3-6.4h14v16.8H447.2z     M429.8,261.1h11.9v-14.5h-9.1l-0.2,4.2C432.1,255.2,431.7,259.6,429.8,261.1z"/>
		<path fill="#00669D" d="M454,244.3h2.6v15.1l12.7-15.1h2.3v19H469v-15.1l-12.6,15.1H454V244.3z"/>
		<path fill="#00669D" d="M495,244.3v19h-2.6v-7.9c-2.1,0.9-4.3,1.4-6.5,1.4c-4.4,0-7.3-2-7.3-6.3v-6.3h2.6v6.1c0,2.9,2,4.3,5.2,4.3    c1.8,0,3.9-0.5,6-1.4v-9H495z"/>
		<path fill="#00669D" d="M504.1,244.3h2.6v8.4h12v-8.4h2.6v19h-2.6v-8.4h-12v8.4h-2.6V244.3z"/>
		<path fill="#00669D" d="M530.3,244.3h2.6v15.1l12.7-15.1h2.3v19h-2.6v-15.1l-12.6,15.1h-2.3V244.3z"/>
		<path fill="#00669D" d="M557,244.3h2.6v15.1l12.7-15.1h2.3v19h-2.6v-15.1l-12.6,15.1H557V244.3z M560.2,236.9h1.8    c0,1.9,1.5,3.1,3.5,3.1s3.5-1.2,3.6-3.1h1.8c-0.1,3-2.2,4.7-5.4,4.7C562.4,241.6,560.3,239.9,560.2,236.9z"/>
		<path fill="#00669D" d="M604.3,253.8c0-5.6,4.1-9.6,9.7-9.6c5.6,0,9.6,4,9.6,9.6c0,5.6-4.1,9.7-9.6,9.7    C608.4,263.5,604.3,259.5,604.3,253.8z M621,253.8c0-4.4-3-7.4-7-7.4c-4,0-7.1,3-7.1,7.4c0,4.4,3,7.4,7.1,7.4    C618,261.2,621,258.3,621,253.8z"/>
		<path fill="#00669D" d="M649.3,261.1v6.8h-2.4v-4.6h-17v4.6h-2.4v-6.8h1.1c2.8-0.2,3.3-5.3,3.5-10.4l0.3-6.4h14v16.8H649.3z     M632,261.1h11.9v-14.5h-9.1l-0.2,4.2C634.3,255.2,633.9,259.6,632,261.1z"/>
		<path fill="#00669D" d="M670.7,244.3v19h-2.3V257h-6h-0.7l-4.4,6.3h-2.8l4.7-6.6c-2.9-0.8-4.6-2.8-4.6-5.9c0-4.3,3.2-6.5,8.1-6.5    H670.7z M662.6,255.1h5.7v-8.5h-5.6c-3.5,0-5.6,1.3-5.6,4.3C657.2,253.8,659.1,255.1,662.6,255.1z"/>
		<path fill="#00669D" d="M693.3,246.6h-10.9v16.7h-2.6v-19h13.4V246.6z"/>
	</g>
	<g>
		<path fill="#00669D" d="M381.7,173.3c0-9.1-5.3-13.5-12.6-13.5c-10.1,0-20.2,8.5-21.8,10c-1.2-6.7-6-10-12.3-10    c-9.7,0-19.6,8-21.5,9.9v-11H295c1.8,1.6,3.3,4.1,3.3,8.1v44.9c0,4-1.5,6.6-3.4,8.2h20.9c-1.3-1.5-2.4-3.8-2.4-7.6v-39.6    c1.4-1.4,6.3-4.9,11.2-4.9c4.6,0,7.9,2.8,7.9,10.6v33.9c0,3.8-1.1,6.1-2.4,7.6H350c-1.3-1.5-2.4-3.8-2.4-7.6v-39.6    c1.4-1.4,6.3-4.9,11.2-4.9c4.6,0,7.9,2.8,7.9,10.6v33.9c0,3.8-1.1,6.1-2.4,7.6H385c-1.8-1.6-3.3-4.2-3.3-8.2V173.3z"/>
		<path fill="#00669D" d="M446.7,204.1c-2.8,1.9-7,3.9-13.1,3.9c-15.6,0-21.5-13-21.9-25.6h39.9c-0.9-4.1-2.4-7.9-4.6-11.2    c-3.9-5.5-9.7-11.3-20.7-11.3c-18.5,0-28.1,16.5-28.1,31.9c0,15.5,9.6,28.6,27.4,28.6c10.6,0,17.2-4.8,21.3-9.8    c2.2-2.8,3.9-6.2,5.1-9.9l-1.2-0.5C449.6,201.6,448.3,202.9,446.7,204.1z M423.1,162.7c9.1,0,11.2,11.2,11.8,16.6h-23.2    C412.1,169.4,416.3,162.7,423.1,162.7z"/>
		<path fill="#FFFFFF" d="M597.2,159.8c-18.4,0-30.1,15.5-30.1,30.3c0,14.8,11.7,30.3,30.1,30.3c18.2,0,30.2-15.5,30.2-30.3    C627.4,175.2,615.4,159.8,597.2,159.8z M597.2,217.6c-11,0-11.9-13-11.9-27.6c0-14.6,0.9-27.6,11.9-27.6c11.2,0,12.1,13,12.1,27.6    C609.3,204.6,608.4,217.6,597.2,217.6z"/>
		<path fill="#FFFFFF" d="M666.6,159.8c-18.4,0-30.1,15.5-30.1,30.3c0,14.8,11.7,30.3,30.1,30.3c18.2,0,30.2-15.5,30.2-30.3    C696.8,175.2,684.9,159.8,666.6,159.8z M666.6,217.6c-11,0-11.9-13-11.9-27.6c0-14.6,0.9-27.6,11.9-27.6c11.2,0,12.1,13,12.1,27.6    C678.7,204.6,677.8,217.6,666.6,217.6z"/>
		<path fill="#00669D" d="M496.9,145.1v17.8c-2.5-1.7-5.4-3.1-9.5-3.1c-14,0-28.2,17.9-28.2,36.1c0,13.9,8.1,24.5,19.2,24.5    c8.8,0,15.4-6.7,18.5-10.4v10.1h18.4c-1.8-1.6-3.3-4.2-3.3-8.2v-75.4h-19.3C494.9,137.8,496.9,140.5,496.9,145.1z M496.9,206.6    c-2,1.5-4.6,3.2-8.1,3.2c-6.7,0-14.4-5.8-14.4-24c0-10.9,2.9-23.4,12.5-23.4c8.9,0,10.1,10.8,10.1,12.8V206.6z"/>
		<path fill="#FFFFFF" d="M535.6,145.1v66.6c0,4-1.5,6.6-3.4,8.2H554c-1.8-1.6-3.3-4.2-3.3-8.2v-75.4h-19.3    C533.6,137.8,535.6,140.5,535.6,145.1z"/>
		<path fill="#FFFFFF" d="M770.3,219.9c-2.3-1.6-5-4.2-7.8-8.2l-17.9-30.6l1.4-1.4c7.7-7.2,14.3-13.5,18-16.1c0.5-0.4,1-0.7,1.5-1    H745c3.1,3.1,4,11-4.3,18.3l-12.3,11.2v-55.9h-19.3c2.2,1.5,4.2,4.2,4.2,8.8v66.6c0,4-1.5,6.6-3.4,8.2h21    c-1.4-1.5-2.5-3.8-2.5-7.6v-15.7l5.9-5.5l10.8,20.5c2.8,4.1,2.1,6.7,0.5,8.4H770.3z"/>
	</g>
	<g>
		<circle fill="#00669D" cx="163.2" cy="189.3" r="90.3"/>
		<g>
			<path fill="#FFFFFF" d="M108.6,140.5V216c0,1.7,1.3,3.2,3,3.3c3.1,0.2,6.6,0.3,9.7,0.3c1.8,0,3.2-1.5,3.2-3.3v-73.6     c2.2-2.4,5.7-5.8,10.8-8.2c0.7-0.3,1.1-0.3,1.6-0.5c8.7-0.5,13.1,5.9,13.1,19v59.1c0,2.1,2,3.8,4,3.4c3.1-0.6,6.3-1.2,9.3-1.9     c1.6-0.3,2.7-1.7,2.7-3.3l0-60.5c0-12.4-8.7-19.4-19.1-20c-1.7-0.1-2.4-0.1-3.6,0c-9.1,0.6-15.4,5.8-19.2,9.8v-10.3h-19.4     C107.5,131.3,108.6,134.9,108.6,140.5z"/>
			<path fill="#FFFFFF" d="M240.8,192c-7.6,3.9-18.7,9.2-31.9,14.3l0-56.7c0-11.3-5.7-18.4-15.5-19.7c0.2,0,0.2,0-0.2,0     c-0.7-0.1-1.3-0.1-2-0.2c-0.3,0-0.6,0-1-0.1c-7.4-0.6-13.9,2.3-18.4,5.6c-0.4,0.3-0.5,0.8-0.3,1.2c0,0.1,0.1,0.2,0.1,0.3     c0.2,0.6,1,0.8,1.6,0.5c1.5-1,3.1-2,4.9-2.9c0.6-0.1,1.5-0.4,2.1-0.5c8.4-0.3,12.7,6.1,12.7,19v59.3c-20.8,7-45,12.7-69,13.1     c-30.3,0.5-44.3-7.3-50.3-21.9c1.3,8.1,3.7,15.8,7.1,23c7,10.9,20,19.1,45.8,21.5c21,1.9,44.4-5.4,66.3-16.2v27.5     c0,2.4,2.4,4.1,4.6,3.1c2.8-1.2,6.1-2.8,9.8-5c1-0.6,1.6-1.7,1.6-2.9l0-31.4c12.3-7.2,23.8-15.2,33.6-22.8     c0.4-0.3,0.7-0.9,0.8-1.4c0.2-1.6,0.4-3.2,0.5-4.7C243.9,192.5,242.2,191.3,240.8,192z"/>
		</g>
	</g>
</g>
</svg>