<?xml version="1.0" standalone="no"?>
<!DOCTYPE svg PUBLIC "-//W3C//DTD SVG 20010904//EN"
 "http://www.w3.org/TR/2001/REC-SVG-20010904/DTD/svg10.dtd">
<svg version="1.0" xmlns="http://www.w3.org/2000/svg"
 width="380.000000pt" height="100.000000pt" viewBox="0 0 380.000000 100.000000"
 preserveAspectRatio="xMidYMid meet">

<g transform="translate(0.000000,100.000000) scale(0.100000,-0.100000)"
fill="#000000" stroke="none">
<path d="M1322 714 c-42 -35 -98 -137 -137 -248 -21 -58 -24 -55 -60 74 -35
122 -65 184 -92 188 -29 4 -102 -81 -146 -172 -21 -41 -37 -81 -37 -88 0 -8
-6 -22 -13 -32 -12 -16 -16 -9 -37 68 -28 105 -72 183 -120 211 -27 15 -52 20
-110 20 -90 0 -159 -30 -237 -102 -46 -43 -41 -42 38 11 77 52 170 69 232 42
73 -31 105 -95 133 -259 18 -108 30 -144 55 -157 36 -20 48 -12 54 38 13 98
36 190 65 249 30 65 69 123 81 123 9 0 37 -85 79 -241 37 -137 61 -182 93
-177 20 3 22 10 28 88 3 47 12 103 19 125 17 53 97 212 110 220 31 19 75 -65
134 -260 25 -82 51 -152 58 -157 32 -21 60 -21 81 1 l22 22 -21 18 c-14 11
-39 71 -73 175 -57 176 -82 230 -110 246 -31 16 -45 12 -89 -26z"/>
<path d="M2174 636 c-16 -12 -20 -29 -22 -105 l-4 -91 -49 0 c-97 0 -139 -35
-139 -115 0 -69 58 -84 149 -39 l53 27 22 -28 c20 -24 27 -27 56 -21 32 6 70
31 70 46 0 4 -10 5 -22 3 -13 -2 -32 2 -43 11 -19 13 -20 26 -20 170 0 135 -2
156 -16 156 -8 0 -24 -6 -35 -14z m-24 -264 c0 -20 -78 -45 -117 -37 l-38 7
24 19 c16 13 39 19 77 19 30 0 54 -4 54 -8z"/>
<path d="M2340 490 c0 -184 11 -230 54 -230 29 0 76 19 76 32 0 4 -11 8 -24 8
-14 0 -27 3 -29 8 -3 4 0 70 5 146 l11 140 -32 28 c-58 52 -61 46 -61 -132z"/>
<path d="M3132 471 c4 -181 10 -211 44 -211 9 0 14 11 14 30 0 17 6 33 13 35
7 3 42 -6 77 -20 90 -36 148 -42 193 -20 55 26 47 41 -25 48 -35 4 -97 17
-138 30 l-75 23 58 43 c31 24 57 45 57 47 0 2 -11 4 -25 4 -17 0 -41 -15 -71
-45 -24 -25 -47 -45 -49 -45 -3 0 -5 51 -5 114 0 107 -1 116 -22 130 -49 35
-51 30 -46 -163z"/>
<path d="M1830 443 c-105 -15 -163 -55 -153 -107 3 -17 17 -42 31 -55 23 -21
33 -23 92 -19 74 6 123 25 128 50 3 14 -2 15 -35 7 -52 -12 -133 -11 -133 1 0
6 8 10 18 10 10 0 42 7 71 16 79 23 95 81 26 96 -11 3 -31 3 -45 1z m30 -44
c0 -10 -45 -32 -92 -43 -35 -8 -39 15 -5 32 48 23 97 29 97 11z"/>
<path d="M2564 430 c-41 -13 -51 -26 -59 -82 -6 -43 -5 -48 19 -63 16 -11 54
-19 94 -22 56 -4 74 -1 112 19 43 22 45 25 48 70 3 41 0 49 -23 64 -30 20
-145 28 -191 14z m165 -69 c22 -6 23 -7 6 -21 -22 -18 -140 -26 -177 -11 -32
12 -36 27 -10 34 26 7 154 6 181 -2z"/>
<path d="M2874 430 c-41 -13 -51 -26 -59 -82 -6 -43 -5 -48 19 -63 16 -11 54
-19 94 -22 56 -4 74 -1 112 19 43 22 45 25 48 70 3 41 0 49 -23 64 -30 20
-145 28 -191 14z m165 -69 c22 -6 23 -7 6 -21 -22 -18 -140 -26 -177 -11 -32
12 -36 27 -10 34 26 7 154 6 181 -2z"/>
</g>
</svg>
